<?xml version="1.0" standalone="no"?>
<!DOCTYPE svg PUBLIC "-//W3C//DTD SVG 20010904//EN"
 "http://www.w3.org/TR/2001/REC-SVG-20010904/DTD/svg10.dtd">
<svg version="1.0" xmlns="http://www.w3.org/2000/svg"
 width="1085.000000pt" height="384.000000pt" viewBox="0 0 1085.000000 384.000000"
 preserveAspectRatio="xMidYMid meet">
<metadata>
Created by potrace 1.16, written by Peter Selinger 2001-2019
</metadata>
<g transform="translate(0.000000,384.000000) scale(0.100000,-0.100000)"
fill="#000000" stroke="none">
<path d="M1680 3833 c-14 -2 -74 -13 -134 -25 -638 -122 -1182 -578 -1421
-1191 -93 -238 -125 -418 -125 -697 0 -284 32 -461 129 -708 211 -534 653
-948 1207 -1127 209 -68 300 -80 584 -80 230 0 266 2 369 24 811 169 1408 794
1537 1609 25 162 15 516 -19 673 -176 805 -816 1402 -1624 1519 -67 9 -447 12
-503 3z m500 -778 c127 -33 186 -69 538 -333 l23 -18 -112 -129 c-110 -127
-197 -252 -273 -387 -20 -38 -40 -68 -44 -67 -4 0 -16 4 -27 9 -17 7 -62 -33
-302 -273 -263 -262 -281 -282 -272 -305 5 -14 8 -26 7 -27 -2 -1 -44 -25 -94
-53 -148 -84 -255 -166 -370 -284 -77 -79 -109 -106 -115 -96 -4 7 -67 92
-139 188 -193 259 -234 357 -234 555 1 133 18 204 81 335 l46 95 341 341 341
342 95 45 c87 42 166 68 245 81 54 8 200 -2 265 -19z m710 -460 c148 -110 184
-162 184 -265 0 -83 -26 -143 -91 -208 -69 -69 -147 -104 -242 -110 -68 -4
-89 0 -208 38 -73 23 -133 45 -133 49 0 25 170 288 233 359 23 27 70 83 105
126 44 53 67 75 75 68 7 -5 41 -30 77 -57z m-1104 -1272 c34 -104 39 -129 39
-213 0 -85 -3 -101 -29 -153 -59 -117 -171 -191 -286 -191 -103 0 -153 35
-264 182 l-47 62 29 38 c50 62 193 196 265 246 83 59 228 146 243 146 6 0 29
-53 50 -117z"/>
<path d="M1754 2796 c-42 -19 -64 -52 -64 -99 0 -31 7 -46 34 -73 38 -38 77
-44 126 -19 37 19 52 48 52 98 -1 45 -22 73 -69 93 -39 17 -40 17 -79 0z"/>
<path d="M2025 2798 c-62 -34 -75 -116 -26 -170 26 -29 35 -33 77 -32 63 1
104 43 104 105 0 78 -89 134 -155 97z"/>
<path d="M1738 2513 c-74 -46 -66 -161 12 -193 70 -29 150 24 150 99 0 43 -20
75 -60 96 -37 19 -68 19 -102 -2z"/>
<path d="M1998 2501 c-28 -25 -33 -36 -33 -75 0 -36 6 -51 29 -75 25 -26 37
-31 76 -31 33 0 53 6 69 21 106 99 -33 257 -141 160z"/>
<path d="M1112 2028 c-22 -22 -12 -52 35 -100 l47 -48 -47 -48 c-53 -54 -63
-96 -26 -107 17 -6 33 4 75 46 l53 53 55 -52 c56 -54 73 -61 94 -40 21 21 13
41 -40 95 l-52 53 52 53 c56 56 64 80 33 97 -28 14 -27 15 -87 -42 l-55 -52
-52 52 c-55 55 -66 59 -85 40z"/>
</g>
</svg>
